<mxfile host="app.diagrams.net" agent="Mozilla/5.0 (Windows NT 10.0; Win64; x64) AppleWebKit/537.36 (KHTML, like Gecko) Chrome/129.0.0.0 Safari/537.36" version="24.7.17">
  <diagram name="Page-1" id="HEkT7q-wdvpcNRgPvfbh">
    <mxGraphModel grid="1" page="1" gridSize="10" guides="1" tooltips="1" connect="1" arrows="1" fold="1" pageScale="1" pageWidth="850" pageHeight="1100" math="0" shadow="0">
      <root>
        <mxCell id="0" />
        <mxCell id="1" parent="0" />
        <mxCell id="jQDhuLx_MhYLody5BaS4-1" value="&lt;ul style=&quot;margin: 12px 0px 0px; display: flex; flex-direction: column; gap: 12px; padding-inline-start: 24px; color: rgb(17, 17, 17); font-family: -apple-system, Roboto, SegoeUI, &amp;quot;Segoe UI&amp;quot;, &amp;quot;Helvetica Neue&amp;quot;, Helvetica, &amp;quot;Microsoft YaHei&amp;quot;, &amp;quot;Meiryo UI&amp;quot;, Meiryo, &amp;quot;Arial Unicode MS&amp;quot;, sans-serif; font-size: 16px; font-style: normal; font-variant-ligatures: normal; font-variant-caps: normal; font-weight: 400; letter-spacing: normal; orphans: 2; text-align: start; text-indent: 0px; text-transform: none; widows: 2; word-spacing: 0px; -webkit-text-stroke-width: 0px; white-space: normal; background-color: rgb(247, 247, 247); text-decoration-thickness: initial; text-decoration-style: initial; text-decoration-color: initial;&quot;&gt;&lt;li&gt;&lt;strong&gt;Customer:&lt;/strong&gt;&lt;span&gt;&amp;nbsp;&lt;/span&gt;Browses books, makes purchases, and manages their account.&lt;/li&gt;&lt;li&gt;&lt;strong&gt;Admin:&lt;/strong&gt;&lt;span&gt;&amp;nbsp;&lt;/span&gt;Manages inventory, processes orders, and handles customer queries.&lt;/li&gt;&lt;li&gt;&lt;strong&gt;Payment Gateway:&lt;/strong&gt;&lt;span&gt;&amp;nbsp;&lt;/span&gt;Processes payments.&lt;/li&gt;&lt;/ul&gt;" style="text;whiteSpace=wrap;html=1;" vertex="1" parent="1">
          <mxGeometry x="40" y="10" width="560" height="200" as="geometry" />
        </mxCell>
        <mxCell id="jQDhuLx_MhYLody5BaS4-3" value="Customer" style="shape=umlActor;verticalLabelPosition=bottom;verticalAlign=top;html=1;outlineConnect=0;" vertex="1" parent="1">
          <mxGeometry x="30" y="250" width="30" height="60" as="geometry" />
        </mxCell>
        <mxCell id="jQDhuLx_MhYLody5BaS4-4" value="login" style="ellipse;whiteSpace=wrap;html=1;" vertex="1" parent="1">
          <mxGeometry x="140" y="240" width="120" height="80" as="geometry" />
        </mxCell>
        <mxCell id="jQDhuLx_MhYLody5BaS4-5" value="" style="endArrow=classic;html=1;rounded=0;exitX=0.5;exitY=0.5;exitDx=0;exitDy=0;exitPerimeter=0;" edge="1" parent="1" source="jQDhuLx_MhYLody5BaS4-3" target="jQDhuLx_MhYLody5BaS4-4">
          <mxGeometry width="50" height="50" relative="1" as="geometry">
            <mxPoint x="100" y="320" as="sourcePoint" />
            <mxPoint x="80" y="270" as="targetPoint" />
          </mxGeometry>
        </mxCell>
        <mxCell id="jQDhuLx_MhYLody5BaS4-6" value="" style="endArrow=classic;html=1;rounded=0;" edge="1" parent="1" source="jQDhuLx_MhYLody5BaS4-4" target="jQDhuLx_MhYLody5BaS4-7">
          <mxGeometry width="50" height="50" relative="1" as="geometry">
            <mxPoint x="400" y="240" as="sourcePoint" />
            <mxPoint x="320" y="220" as="targetPoint" />
          </mxGeometry>
        </mxCell>
        <mxCell id="jQDhuLx_MhYLody5BaS4-7" value="Registration" style="ellipse;whiteSpace=wrap;html=1;" vertex="1" parent="1">
          <mxGeometry x="290" y="190" width="120" height="80" as="geometry" />
        </mxCell>
        <mxCell id="jQDhuLx_MhYLody5BaS4-10" value="Browses books" style="ellipse;whiteSpace=wrap;html=1;" vertex="1" parent="1">
          <mxGeometry x="290" y="310" width="120" height="50" as="geometry" />
        </mxCell>
        <mxCell id="jQDhuLx_MhYLody5BaS4-34" style="edgeStyle=orthogonalEdgeStyle;rounded=0;orthogonalLoop=1;jettySize=auto;html=1;" edge="1" parent="1">
          <mxGeometry relative="1" as="geometry">
            <mxPoint x="750" y="290" as="targetPoint" />
            <mxPoint x="750" y="290" as="sourcePoint" />
          </mxGeometry>
        </mxCell>
        <mxCell id="jQDhuLx_MhYLody5BaS4-11" value="Admin" style="shape=umlActor;verticalLabelPosition=bottom;verticalAlign=top;html=1;outlineConnect=0;" vertex="1" parent="1">
          <mxGeometry x="760" y="260" width="30" height="60" as="geometry" />
        </mxCell>
        <mxCell id="jQDhuLx_MhYLody5BaS4-12" value="make payment" style="ellipse;whiteSpace=wrap;html=1;" vertex="1" parent="1">
          <mxGeometry x="140" y="460" width="120" height="50" as="geometry" />
        </mxCell>
        <mxCell id="jQDhuLx_MhYLody5BaS4-13" value="manage their account" style="ellipse;whiteSpace=wrap;html=1;" vertex="1" parent="1">
          <mxGeometry x="440" y="190" width="120" height="40" as="geometry" />
        </mxCell>
        <mxCell id="jQDhuLx_MhYLody5BaS4-14" style="edgeStyle=orthogonalEdgeStyle;rounded=0;orthogonalLoop=1;jettySize=auto;html=1;exitX=0.5;exitY=1;exitDx=0;exitDy=0;" edge="1" parent="1" source="jQDhuLx_MhYLody5BaS4-7" target="jQDhuLx_MhYLody5BaS4-7">
          <mxGeometry relative="1" as="geometry" />
        </mxCell>
        <mxCell id="jQDhuLx_MhYLody5BaS4-15" value="manage inventory" style="ellipse;whiteSpace=wrap;html=1;" vertex="1" parent="1">
          <mxGeometry x="450" y="330" width="120" height="50" as="geometry" />
        </mxCell>
        <mxCell id="jQDhuLx_MhYLody5BaS4-16" value="" style="endArrow=classic;html=1;rounded=0;exitX=0.5;exitY=0.5;exitDx=0;exitDy=0;exitPerimeter=0;" edge="1" parent="1" source="jQDhuLx_MhYLody5BaS4-11" target="jQDhuLx_MhYLody5BaS4-17">
          <mxGeometry width="50" height="50" relative="1" as="geometry">
            <mxPoint x="400" y="340" as="sourcePoint" />
            <mxPoint x="450" y="290" as="targetPoint" />
          </mxGeometry>
        </mxCell>
        <mxCell id="jQDhuLx_MhYLody5BaS4-17" value="process orders" style="ellipse;whiteSpace=wrap;html=1;" vertex="1" parent="1">
          <mxGeometry x="450" y="260" width="120" height="60" as="geometry" />
        </mxCell>
        <mxCell id="jQDhuLx_MhYLody5BaS4-19" value="handles customer inquires" style="ellipse;whiteSpace=wrap;html=1;" vertex="1" parent="1">
          <mxGeometry x="450" y="390" width="120" height="50" as="geometry" />
        </mxCell>
        <mxCell id="jQDhuLx_MhYLody5BaS4-22" style="edgeStyle=orthogonalEdgeStyle;rounded=0;orthogonalLoop=1;jettySize=auto;html=1;exitX=0.5;exitY=1;exitDx=0;exitDy=0;" edge="1" parent="1" source="jQDhuLx_MhYLody5BaS4-17" target="jQDhuLx_MhYLody5BaS4-17">
          <mxGeometry relative="1" as="geometry" />
        </mxCell>
        <mxCell id="jQDhuLx_MhYLody5BaS4-23" value="make purchase&amp;nbsp;" style="ellipse;whiteSpace=wrap;html=1;" vertex="1" parent="1">
          <mxGeometry x="150" y="340" width="120" height="60" as="geometry" />
        </mxCell>
        <mxCell id="jQDhuLx_MhYLody5BaS4-24" value="" style="endArrow=classic;html=1;rounded=0;exitX=0.325;exitY=1;exitDx=0;exitDy=0;exitPerimeter=0;entryX=0.392;entryY=0;entryDx=0;entryDy=0;entryPerimeter=0;" edge="1" parent="1" source="jQDhuLx_MhYLody5BaS4-23" target="jQDhuLx_MhYLody5BaS4-12">
          <mxGeometry width="50" height="50" relative="1" as="geometry">
            <mxPoint x="400" y="440" as="sourcePoint" />
            <mxPoint x="450" y="390" as="targetPoint" />
          </mxGeometry>
        </mxCell>
        <mxCell id="jQDhuLx_MhYLody5BaS4-27" value="" style="endArrow=classic;html=1;rounded=0;exitX=0.5;exitY=1;exitDx=0;exitDy=0;" edge="1" parent="1" source="jQDhuLx_MhYLody5BaS4-7" target="jQDhuLx_MhYLody5BaS4-10">
          <mxGeometry width="50" height="50" relative="1" as="geometry">
            <mxPoint x="400" y="340" as="sourcePoint" />
            <mxPoint x="450" y="290" as="targetPoint" />
          </mxGeometry>
        </mxCell>
        <mxCell id="jQDhuLx_MhYLody5BaS4-28" value="" style="endArrow=classic;html=1;rounded=0;entryX=0.975;entryY=0.4;entryDx=0;entryDy=0;entryPerimeter=0;" edge="1" parent="1" source="jQDhuLx_MhYLody5BaS4-10" target="jQDhuLx_MhYLody5BaS4-23">
          <mxGeometry width="50" height="50" relative="1" as="geometry">
            <mxPoint x="290" y="290" as="sourcePoint" />
            <mxPoint x="450" y="290" as="targetPoint" />
          </mxGeometry>
        </mxCell>
        <mxCell id="jQDhuLx_MhYLody5BaS4-30" value="" style="endArrow=classic;html=1;rounded=0;exitX=0.75;exitY=0.1;exitDx=0;exitDy=0;exitPerimeter=0;" edge="1" parent="1" source="jQDhuLx_MhYLody5BaS4-11">
          <mxGeometry width="50" height="50" relative="1" as="geometry">
            <mxPoint x="747.5" y="160" as="sourcePoint" />
            <mxPoint x="550" y="204" as="targetPoint" />
          </mxGeometry>
        </mxCell>
        <mxCell id="USLRB2XjYQKksD2vMLDh-1" value="" style="endArrow=classic;html=1;rounded=0;" edge="1" parent="1" source="jQDhuLx_MhYLody5BaS4-11" target="jQDhuLx_MhYLody5BaS4-15">
          <mxGeometry width="50" height="50" relative="1" as="geometry">
            <mxPoint x="690" y="310" as="sourcePoint" />
            <mxPoint x="450" y="250" as="targetPoint" />
          </mxGeometry>
        </mxCell>
        <mxCell id="xJyV-gGQWwqC1s6NbqSy-1" value="Guest user" style="shape=umlActor;verticalLabelPosition=bottom;verticalAlign=top;html=1;outlineConnect=0;" vertex="1" parent="1">
          <mxGeometry y="490" width="30" height="60" as="geometry" />
        </mxCell>
      </root>
    </mxGraphModel>
  </diagram>
</mxfile>
